<svg width="135" height="28" viewBox="0 0 135 28" fill="none" xmlns="http://www.w3.org/2000/svg">
<path d="M40.1623 21.2112C39.2331 21.2112 38.3954 21.0493 37.6492 20.7255C36.903 20.4016 36.2835 19.923 35.7908 19.2894L37.2691 18.0223C37.6914 18.5151 38.149 18.8741 38.6418 19.0994C39.1486 19.3105 39.7188 19.4161 40.3523 19.4161C40.6058 19.4161 40.8381 19.388 41.0492 19.3317C41.2745 19.2613 41.4646 19.1627 41.6194 19.036C41.7884 18.9093 41.9151 18.7615 41.9996 18.5925C42.084 18.4095 42.1263 18.2124 42.1263 18.0012C42.1263 17.6351 41.9925 17.3395 41.725 17.1142C41.5842 17.0157 41.359 16.9101 41.0492 16.7975C40.7536 16.6707 40.3664 16.544 39.8877 16.4173C39.0712 16.2061 38.4024 15.9668 37.8815 15.6993C37.3606 15.4318 36.9593 15.1291 36.6777 14.7912C36.4666 14.5237 36.3117 14.2351 36.2131 13.9254C36.1146 13.6015 36.0653 13.2496 36.0653 12.8694C36.0653 12.4048 36.1639 11.9825 36.361 11.6023C36.5722 11.2081 36.8537 10.8702 37.2057 10.5887C37.5718 10.293 37.9941 10.0678 38.4728 9.91288C38.9656 9.75801 39.4865 9.68058 40.0356 9.68058C40.5565 9.68058 41.0704 9.75098 41.5772 9.89176C42.0981 10.0326 42.5768 10.2367 43.0132 10.5042C43.4497 10.7717 43.8157 11.0885 44.1114 11.4545L42.8654 12.8272C42.5979 12.5597 42.3023 12.3274 41.9784 12.1303C41.6687 11.9191 41.3519 11.7572 41.0281 11.6446C40.7043 11.532 40.4087 11.4756 40.1412 11.4756C39.8455 11.4756 39.578 11.5038 39.3387 11.5601C39.0993 11.6164 38.8952 11.7009 38.7262 11.8135C38.5714 11.9262 38.4517 12.067 38.3672 12.2359C38.2827 12.4048 38.2405 12.5949 38.2405 12.8061C38.2546 12.9891 38.2968 13.1651 38.3672 13.3341C38.4517 13.4889 38.5643 13.6227 38.7051 13.7353C38.86 13.8479 39.0923 13.9676 39.402 14.0943C39.7117 14.221 40.106 14.3407 40.5846 14.4533C41.2886 14.6363 41.8658 14.8405 42.3163 15.0658C42.7809 15.2769 43.147 15.5233 43.4145 15.8049C43.6961 16.0724 43.8932 16.3821 44.0058 16.7341C44.1184 17.0861 44.1748 17.4803 44.1748 17.9167C44.1748 18.5503 43.9917 19.1205 43.6257 19.6273C43.2737 20.1201 42.795 20.5072 42.1896 20.7888C41.5842 21.0704 40.9085 21.2112 40.1623 21.2112ZM50.0772 21.2112C48.9368 21.2112 47.9231 20.9718 47.0361 20.4932C46.1632 20.0004 45.4734 19.3317 44.9665 18.4869C44.4738 17.6422 44.2274 16.6707 44.2274 15.5726C44.2274 14.6997 44.3682 13.9042 44.6497 13.1862C44.9313 12.4682 45.3185 11.8487 45.8113 11.3278C46.3181 10.7928 46.9164 10.3845 47.6063 10.1029C48.3103 9.80729 49.0705 9.65946 49.8871 9.65946C50.6051 9.65946 51.2739 9.80025 51.8933 10.0818C52.5128 10.3493 53.0478 10.7224 53.4983 11.2011C53.9629 11.6798 54.3149 12.25 54.5542 12.9117C54.8077 13.5593 54.9273 14.2703 54.9133 15.0446L54.8921 15.9738H45.8324L45.3467 14.2421H53.0126L52.6958 14.6011V14.0943C52.6536 13.6297 52.4987 13.2144 52.2312 12.8483C51.9637 12.4823 51.6258 12.1937 51.2175 11.9825C50.8093 11.7713 50.3658 11.6657 49.8871 11.6657C49.1268 11.6657 48.4862 11.8135 47.9653 12.1092C47.4444 12.3908 47.0502 12.8131 46.7827 13.3763C46.5152 13.9254 46.3814 14.6082 46.3814 15.4248C46.3814 16.1991 46.5434 16.8749 46.8672 17.4521C47.191 18.0153 47.6485 18.4517 48.2399 18.7615C48.8312 19.0712 49.514 19.2261 50.2883 19.2261C50.8374 19.2261 51.3443 19.1345 51.8089 18.9515C52.2875 18.7685 52.8014 18.4376 53.3505 17.959L54.4486 19.5006C54.1108 19.8385 53.6954 20.1341 53.2027 20.3876C52.724 20.641 52.2101 20.8451 51.661 21C51.126 21.1408 50.5981 21.2112 50.0772 21.2112ZM59.8536 21.2112C58.9385 21.2112 58.1008 20.9578 57.3405 20.4509C56.5944 19.9441 55.996 19.2542 55.5455 18.3813C55.095 17.5084 54.8697 16.5229 54.8697 15.4248C54.8697 14.3125 55.095 13.327 55.5455 12.4682C56.0101 11.5953 56.6296 10.9125 57.4039 10.4197C58.1923 9.92696 59.0722 9.68058 60.0437 9.68058C60.6209 9.68058 61.1489 9.76505 61.6276 9.934C62.1062 10.1029 62.5216 10.3423 62.8735 10.652C63.2396 10.9477 63.5352 11.2926 63.7605 11.6868C63.9998 12.081 64.1477 12.5034 64.204 12.9539L63.7183 12.785V9.91288H65.9146V21H63.7183V18.3602L64.2251 18.2124C64.1406 18.5925 63.9647 18.9656 63.6972 19.3317C63.4437 19.6836 63.1129 20.0004 62.7046 20.282C62.3104 20.5636 61.8669 20.7888 61.3741 20.9578C60.8955 21.1267 60.3886 21.2112 59.8536 21.2112ZM60.4238 19.2049C61.0855 19.2049 61.6698 19.043 62.1766 18.7192C62.6835 18.3954 63.0777 17.9519 63.3593 17.3888C63.6549 16.8115 63.8027 16.1569 63.8027 15.4248C63.8027 14.7067 63.6549 14.0662 63.3593 13.503C63.0777 12.9398 62.6835 12.4964 62.1766 12.1725C61.6698 11.8487 61.0855 11.6868 60.4238 11.6868C59.7762 11.6868 59.1989 11.8487 58.6921 12.1725C58.1993 12.4964 57.8051 12.9398 57.5095 13.503C57.2279 14.0662 57.0871 14.7067 57.0871 15.4248C57.0871 16.1569 57.2279 16.8115 57.5095 17.3888C57.8051 17.9519 58.1993 18.3954 58.6921 18.7192C59.1989 19.043 59.7762 19.2049 60.4238 19.2049ZM67.2622 21V9.91288H69.4585V13.3974L69.2473 12.5527C69.4022 12.0177 69.6626 11.532 70.0287 11.0955C70.4088 10.6591 70.8382 10.3141 71.3169 10.0607C71.8097 9.80729 72.3165 9.68058 72.8374 9.68058C73.0768 9.68058 73.302 9.7017 73.5132 9.74394C73.7385 9.78617 73.9145 9.83545 74.0412 9.89176L73.471 12.257C73.302 12.1866 73.112 12.1303 72.9008 12.0881C72.7037 12.0318 72.5066 12.0036 72.3095 12.0036C71.9293 12.0036 71.5633 12.081 71.2113 12.2359C70.8734 12.3767 70.5707 12.5808 70.3032 12.8483C70.0498 13.1017 69.8457 13.4044 69.6908 13.7564C69.5359 14.0943 69.4585 14.4674 69.4585 14.8757V21H67.2622ZM78.3252 21.2112C77.2975 21.2112 76.3753 20.9578 75.5587 20.4509C74.7562 19.9441 74.1156 19.2542 73.637 18.3813C73.1723 17.5084 72.94 16.53 72.94 15.4459C72.94 14.3618 73.1723 13.3833 73.637 12.5104C74.1156 11.6375 74.7562 10.9477 75.5587 10.4408C76.3753 9.934 77.2975 9.68058 78.3252 9.68058C79.3107 9.68058 80.2047 9.88472 81.0072 10.293C81.8238 10.6872 82.4433 11.2293 82.8657 11.9191L81.6619 13.3974C81.4367 13.0736 81.148 12.7779 80.7961 12.5104C80.4441 12.2429 80.071 12.0318 79.6768 11.8769C79.2826 11.722 78.9025 11.6446 78.5364 11.6446C77.8606 11.6446 77.2552 11.8135 76.7202 12.1514C76.1993 12.4752 75.784 12.9258 75.4742 13.503C75.1645 14.0802 75.0096 14.7279 75.0096 15.4459C75.0096 16.1639 75.1715 16.8115 75.4954 17.3888C75.8192 17.9519 76.2486 18.4024 76.7836 18.7403C77.3186 19.0782 77.9099 19.2472 78.5575 19.2472C78.9376 19.2472 79.3037 19.1838 79.6557 19.0571C80.0217 18.9304 80.3737 18.7403 80.7116 18.4869C81.0495 18.2335 81.3663 17.9238 81.6619 17.5577L82.8657 19.036C82.4151 19.6695 81.7675 20.1905 80.9228 20.5988C80.0921 21.007 79.2263 21.2112 78.3252 21.2112ZM83.228 21V5.37244H85.4032V12.1937L85.023 12.4471C85.1638 11.9543 85.4384 11.5038 85.8466 11.0955C86.2549 10.6731 86.7406 10.3352 87.3038 10.0818C87.867 9.81433 88.4442 9.68058 89.0355 9.68058C89.8802 9.68058 90.5842 9.84953 91.1473 10.1874C91.7105 10.5112 92.1329 11.011 92.4144 11.6868C92.696 12.3626 92.8368 13.2144 92.8368 14.2421V21H90.6616V14.39C90.6616 13.7564 90.5771 13.2355 90.4082 12.8272C90.2392 12.4048 89.9788 12.1021 89.6268 11.9191C89.2748 11.722 88.8384 11.6375 88.3175 11.6657C87.8951 11.6657 87.5079 11.7361 87.156 11.8769C86.804 12.0036 86.4943 12.1866 86.2268 12.426C85.9733 12.6653 85.7692 12.9469 85.6143 13.2707C85.4735 13.5804 85.4032 13.9183 85.4032 14.2844V21H84.3261C84.1431 21 83.9601 21 83.777 21C83.594 21 83.411 21 83.228 21ZM98.364 21.2112C97.4489 21.2112 96.6112 20.9578 95.8509 20.4509C95.1048 19.9441 94.5064 19.2542 94.0559 18.3813C93.6054 17.5084 93.3801 16.5229 93.3801 15.4248C93.3801 14.3125 93.6054 13.327 94.0559 12.4682C94.5205 11.5953 95.14 10.9125 95.9143 10.4197C96.7027 9.92696 97.5826 9.68058 98.5541 9.68058C99.1313 9.68058 99.6593 9.76505 100.138 9.934C100.617 10.1029 101.032 10.3423 101.384 10.652C101.75 10.9477 102.046 11.2926 102.271 11.6868C102.51 12.081 102.658 12.5034 102.714 12.9539L102.229 12.785V9.91288H104.425V21H102.229V18.3602L102.736 18.2124C102.651 18.5925 102.475 18.9656 102.208 19.3317C101.954 19.6836 101.623 20.0004 101.215 20.282C100.821 20.5636 100.377 20.7888 99.8845 20.9578C99.4059 21.1267 98.899 21.2112 98.364 21.2112ZM98.9342 19.2049C99.5959 19.2049 100.18 19.043 100.687 18.7192C101.194 18.3954 101.588 17.9519 101.87 17.3888C102.165 16.8115 102.313 16.1569 102.313 15.4248C102.313 14.7067 102.165 14.0662 101.87 13.503C101.588 12.9398 101.194 12.4964 100.687 12.1725C100.18 11.8487 99.5959 11.6868 98.9342 11.6868C98.2866 11.6868 97.7094 11.8487 97.2025 12.1725C96.7098 12.4964 96.3155 12.9398 96.0199 13.503C95.7383 14.0662 95.5975 14.7067 95.5975 15.4248C95.5975 16.1569 95.7383 16.8115 96.0199 17.3888C96.3155 17.9519 96.7098 18.3954 97.2025 18.7192C97.7094 19.043 98.2866 19.2049 98.9342 19.2049ZM111.601 21.2112C111.123 21.2112 110.644 21.1337 110.165 20.9789C109.701 20.824 109.271 20.6199 108.877 20.3665C108.497 20.099 108.173 19.8103 107.906 19.5006C107.652 19.1768 107.483 18.853 107.399 18.5292L107.948 18.2335V20.9366H105.773V5.37244H107.948V12.4471L107.61 12.257C107.68 11.9332 107.835 11.6235 108.074 11.3278C108.314 11.0181 108.617 10.7435 108.983 10.5042C109.363 10.2508 109.771 10.0537 110.207 9.91288C110.644 9.75801 111.087 9.68058 111.538 9.68058C112.537 9.68058 113.424 9.92696 114.199 10.4197C114.973 10.9125 115.586 11.5953 116.036 12.4682C116.487 13.327 116.712 14.3125 116.712 15.4248C116.712 16.537 116.487 17.5296 116.036 18.4024C115.6 19.2753 114.994 19.9652 114.22 20.472C113.446 20.9648 112.573 21.2112 111.601 21.2112ZM111.242 19.2261C111.89 19.2261 112.467 19.0642 112.974 18.7403C113.481 18.4024 113.882 17.9519 114.178 17.3888C114.473 16.8115 114.621 16.1569 114.621 15.4248C114.621 14.7067 114.473 14.0662 114.178 13.503C113.896 12.9258 113.502 12.4752 112.995 12.1514C112.488 11.8276 111.904 11.6657 111.242 11.6657C110.581 11.6657 109.996 11.8276 109.489 12.1514C108.983 12.4752 108.581 12.9258 108.286 13.503C107.99 14.0662 107.842 14.7067 107.842 15.4248C107.842 16.1569 107.99 16.8115 108.286 17.3888C108.581 17.9519 108.983 18.4024 109.489 18.7403C109.996 19.0642 110.581 19.2261 111.242 19.2261ZM117.427 21V5.37244H119.603V21H117.427ZM125.964 21.2112C124.823 21.2112 123.81 20.9718 122.923 20.4932C122.05 20.0004 121.36 19.3317 120.853 18.4869C120.36 17.6422 120.114 16.6707 120.114 15.5726C120.114 14.6997 120.255 13.9042 120.536 13.1862C120.818 12.4682 121.205 11.8487 121.698 11.3278C122.205 10.7928 122.803 10.3845 123.493 10.1029C124.197 9.80729 124.957 9.65946 125.774 9.65946C126.492 9.65946 127.16 9.80025 127.78 10.0818C128.399 10.3493 128.934 10.7224 129.385 11.2011C129.849 11.6798 130.201 12.25 130.441 12.9117C130.694 13.5593 130.814 14.2703 130.8 15.0446L130.779 15.9738H121.719L121.233 14.2421H128.899L128.582 14.6011V14.0943C128.54 13.6297 128.385 13.2144 128.118 12.8483C127.85 12.4823 127.512 12.1937 127.104 11.9825C126.696 11.7713 126.252 11.6657 125.774 11.6657C125.013 11.6657 124.373 11.8135 123.852 12.1092C123.331 12.3908 122.937 12.8131 122.669 13.3763C122.402 13.9254 122.268 14.6082 122.268 15.4248C122.268 16.1991 122.43 16.8749 122.754 17.4521C123.078 18.0153 123.535 18.4517 124.126 18.7615C124.718 19.0712 125.401 19.2261 126.175 19.2261C126.724 19.2261 127.231 19.1345 127.695 18.9515C128.174 18.7685 128.688 18.4376 129.237 17.959L130.335 19.5006C129.997 19.8385 129.582 20.1341 129.089 20.3876C128.611 20.641 128.097 20.8451 127.548 21C127.013 21.1408 126.485 21.2112 125.964 21.2112Z" fill="#1D1D1D"/>
<rect width="8.08265" height="3.14325" transform="matrix(0.965926 -0.258819 0.707107 0.707107 2.2218 14.6621)" fill="#1D1D1D"/>
<rect width="8.08265" height="3.14325" transform="matrix(0.965926 -0.258819 0.707107 0.707107 7.8064 10.3486)" fill="#1D1D1D"/>
<rect width="8.08265" height="3.14325" transform="matrix(0.965926 -0.258819 0.707107 0.707107 12.2517 14.793)" fill="#1D1D1D"/>
<rect width="8.08265" height="3.14325" transform="matrix(0.965926 -0.258819 0.707107 0.707107 6.66711 19.1074)" fill="#1D1D1D"/>
<rect width="8.08265" height="3.14325" transform="matrix(0.965926 -0.258819 0.707107 0.707107 16.697 19.2383)" fill="#1D1D1D"/>
<rect width="8.08265" height="3.14325" transform="matrix(0.965926 -0.258819 0.707107 0.707107 22.2815 14.9248)" fill="#1D1D1D"/>
<rect width="8.08265" height="3.14325" transform="matrix(0.965926 -0.258819 0.707107 0.707107 17.8363 10.4785)" fill="#1D1D1D"/>
</svg>
